<svg width="32" height="32" viewBox="0 0 32 32" fill="none" xmlns="http://www.w3.org/2000/svg">
<g clip-path="url(#clip0_3_4053)">
<path d="M31.4277 11.4384C31.2666 10.6282 31.0674 9.81469 30.8388 9.02525C30.7923 8.87328 30.6894 8.74486 30.5512 8.66633C30.4131 8.58781 30.2501 8.56513 30.0957 8.60295C29.75 8.68733 29.3865 8.66082 29.0567 8.52719C28.7269 8.39355 28.4474 8.15955 28.258 7.85831C28.2132 7.78721 28.1548 7.72564 28.0861 7.67714C28.0175 7.62863 27.94 7.59415 27.858 7.57565C27.7794 7.55831 27.6982 7.55685 27.6191 7.57136C27.54 7.58587 27.4645 7.61605 27.3972 7.66013C27.0081 7.9164 26.5654 8.08001 26.1031 8.13838C25.6408 8.19676 25.1713 8.14834 24.7307 7.99685C24.2901 7.84536 23.89 7.59483 23.5614 7.26454C23.2327 6.93425 22.9842 6.53298 22.8349 6.0916C22.7842 5.94006 22.6771 5.81384 22.5359 5.73908C22.3947 5.66432 22.2301 5.64675 22.0763 5.69C21.8123 5.75677 21.5414 5.79257 21.2691 5.79666C20.6025 5.79666 18.8148 5.07618 18.3765 3.67997C18.3033 3.43866 18.2676 3.1875 18.2709 2.93533C18.2816 2.68253 18.3361 2.4335 18.432 2.19933C18.4614 2.12464 18.4757 2.04488 18.4742 1.96463C18.4727 1.88438 18.4553 1.80522 18.4231 1.7317C18.3909 1.65819 18.3444 1.59176 18.2865 1.53624C18.2285 1.48072 18.1601 1.4372 18.0853 1.40819C17.887 1.32858 17.706 1.21154 17.552 1.06344C17.3706 0.884378 17.2326 0.666239 17.1484 0.425682C17.1075 0.309929 17.0328 0.209115 16.934 0.136303C16.8352 0.0634914 16.7168 0.0220361 16.5941 0.0173087C16.4554 0.0104287 16.2823 0.00178869 16.1092 0.00178869C11.2784 -0.0602379 7.07982 1.49277 4.27904 4.37128C2.22486 6.48109 1.37089 8.81122 1.04871 9.68882C0.509803 11.1951 0.182297 12.7689 0.0755425 14.3651C-0.0766085 16.1395 0.00492372 17.9261 0.318048 19.6792C0.648131 21.45 1.20102 23.1718 1.96353 24.8037C2.01548 24.9157 3.26779 27.5702 4.97909 28.7492C5.27152 28.9477 5.58744 29.1093 5.91961 29.2301C6.16949 29.3154 6.42795 29.3732 6.69038 29.4025C7.85432 29.5438 8.64237 29.0457 9.33874 28.6061C9.81874 28.3028 10.274 28.0166 10.8267 27.9166C11.7534 27.765 12.3681 28.2614 13.0784 28.8267C13.7888 29.3921 14.6165 30.0574 15.8498 29.9713C16.9185 29.8954 17.4728 29.318 17.9595 28.8078C18.3925 28.3579 18.7995 27.9322 19.5443 27.8236C21.0323 27.6049 22.333 28.8578 23.5939 30.0643C24.6332 31.0554 25.6099 32 26.6303 32C26.8069 32.0003 26.9824 31.9718 27.1499 31.9155C27.9659 31.6449 28.4576 30.7469 29.4345 28.9611L29.4795 28.8801C29.9298 28.0549 30.3015 27.1893 30.5898 26.2946C31.8179 22.5784 31.9858 18.924 31.9997 17.5263C32.02 15.4827 31.8283 13.4424 31.4277 11.4384ZM24.6414 27.4081C23.803 26.386 22.7587 25.1122 20.9555 24.9019C20.783 24.8821 20.6095 24.8723 20.4359 24.8726C20.2088 24.8731 19.9821 24.888 19.7569 24.9174C18.4129 25.0898 17.6594 25.7362 17.0549 26.2533C16.5577 26.679 16.1663 27.0134 15.5791 27.0533C14.8984 27.0981 14.4654 26.7085 13.9181 26.2207C13.3343 25.7034 12.671 25.1038 11.5642 24.9935C10.5596 24.8935 9.5134 25.2297 8.46722 25.9812C8.11271 26.2058 7.71168 26.3467 7.29459 26.3931C7.03752 26.4003 6.78153 26.357 6.54116 26.2655C6.49081 26.2441 6.44167 26.22 6.39396 26.1932C6.18062 26.0641 5.99228 25.8977 5.83796 25.7019C5.34778 25.1193 1.11266 19.7949 2.90902 12.3883L2.93675 12.2729C3.27275 10.8819 3.976 7.98439 6.47017 5.63821C8.40393 3.81646 10.8864 2.68611 13.5301 2.42355L13.6167 2.41491C14.3095 2.34941 15.1756 2.26669 15.522 2.80957C15.6551 3.02305 15.7374 3.26422 15.7627 3.51453C15.7783 3.59554 15.7939 3.6869 15.8164 3.79549C15.9444 4.45736 16.3707 6.08797 17.5485 6.92738C18.2656 7.44471 19.2269 7.62893 20.4428 7.8685C20.5849 7.89607 20.642 7.90471 20.6766 7.90989L20.7406 7.9237C21.404 8.09607 21.6793 8.52007 21.9999 9.01303C22.2666 9.42498 22.568 9.89213 23.1292 10.2299C24.0679 10.7953 25.5541 10.9194 26.6557 10.5109L26.7631 10.4713C26.9628 10.376 27.1829 10.3316 27.404 10.342C28.0137 10.3937 28.4778 11.2762 28.632 11.5658C28.9106 12.1129 29.1223 12.6917 29.2625 13.2895C29.5175 14.3335 29.6655 15.4008 29.7042 16.4748V16.6058C29.7042 16.7385 29.718 16.8626 29.7128 16.9816C29.6697 18.6173 29.5152 20.2482 29.2503 21.863C28.7064 24.9397 27.5979 28.5681 26.266 28.6681C25.7274 28.7267 25.2233 28.1114 24.6414 27.4081Z" fill="white"/>
<path d="M7.25305 11.9641C6.06308 11.9641 5.12954 13.5912 5.12954 15.6665C5.12954 17.7418 6.06287 19.369 7.25305 19.369C8.44322 19.369 9.37655 17.7418 9.37655 15.6665C9.37655 13.5912 8.44472 11.9641 7.25305 11.9641Z" fill="white"/>
<path d="M19.9648 11.9641C18.7746 11.9641 17.8412 13.5912 17.8412 15.6665C17.8412 17.7418 18.7746 19.369 19.9648 19.369C21.1549 19.369 22.0883 17.7418 22.0883 15.6665C22.0883 13.5912 21.1564 11.9641 19.9648 11.9641Z" fill="white"/>
</g>
<defs>
<clipPath id="clip0_3_4053">
<rect width="32" height="32" fill="white"/>
</clipPath>
</defs>
</svg>
