<svg width="24" height="24" viewBox="0 0 24 24" fill="none" xmlns="http://www.w3.org/2000/svg">
<g clip-path="url(#clip0_3_4129)">
<path d="M16.679 18.2759C16.3791 17.88 16.1939 17.4091 16.144 16.9149C16.0836 16.1687 16.386 15.4213 17.042 14.6925C17.1419 13.917 16.8971 10.9308 16.8971 10.9308H5.49057C5.49057 10.9308 5.60546 17.581 5.49057 17.4403C4.11042 15.733 3.45705 13.5514 3.67151 11.3665C3.88597 9.18158 4.95105 7.16866 6.63682 5.76225C8.32259 4.35583 10.4938 3.66881 12.6818 3.84941C14.8697 4.03001 16.8989 5.06376 18.3313 6.72755C21.3121 10.1883 20.4559 15.9343 17.0419 18.9684C16.9676 19.0414 16.814 18.4614 16.679 18.2759Z" fill="#EECFFC"/>
<path d="M5.48445 10.2268V16.2888L7.24902 18.7693L8.1187 18.9225L9.48275 18.5298L11.6226 19.2303L13.6875 18.5298L16.3274 20.2022L17.1971 18.7698C17.1971 18.7698 14.9974 17.005 17.0946 14.6774C17.1971 13.8847 17.0087 10.7627 17.0087 10.7627L5.48445 10.2268Z" fill="white"/>
<path d="M15.0262 20.0593C14.501 19.5466 13.934 19.0352 13.2772 19.1367C12.5227 19.247 12.4898 20.0331 11.6796 20.0914C11.4751 20.0922 11.2726 20.0516 11.0842 19.972C10.8958 19.8924 10.7255 19.7754 10.5836 19.6282C10.2605 19.3634 9.95341 19.0978 9.48733 19.1756C8.84979 19.2841 8.51494 19.9341 7.71873 19.8339C7.61173 19.8221 7.50664 19.7969 7.40597 19.7588C7.26961 19.71 7.14053 19.6429 7.02228 19.5593C6.48743 19.0954 6.05786 18.5225 5.76235 17.8791C5.72539 17.9453 5.67274 18.0015 5.60902 18.0427C5.5453 18.0839 5.47245 18.1088 5.39686 18.1153C5.32097 18.1219 5.24463 18.1094 5.17482 18.0789C5.10501 18.0484 5.04395 18.0009 4.99722 17.9408C1.91009 14.0412 2.46184 8.33739 6.23679 5.12771C10.0118 1.91803 15.6134 2.39199 18.8205 6.18782C22.027 9.98671 21.6528 15.7072 17.9794 19.0374C17.8992 19.1167 17.8129 19.1895 17.7211 19.255C17.6605 19.3872 17.5935 19.5213 17.5187 19.6674C17.0947 20.4608 16.8862 20.8593 16.5677 20.968C16.5071 20.9881 16.4439 20.9987 16.3801 20.9994C15.946 21.0165 15.5055 20.5562 15.0262 20.0593ZM14.573 18.3403C15.1355 18.7395 16.2321 19.7446 16.2321 19.7446C16.4404 19.7085 16.6975 19.4262 16.6543 19.3915C16.167 18.9973 15.7926 18.0429 15.7926 17.0388C15.7926 15.8762 16.177 14.9707 16.7556 14.6557V11.3328C16.7557 11.3016 16.7515 11.2706 16.7432 11.2405H5.84105C5.83353 11.2708 5.82902 11.3017 5.82758 11.3328V15.765C6.18195 16.6931 6.66015 17.5692 7.2492 18.3693C7.32426 18.4666 7.4164 18.5495 7.52111 18.6139C7.54519 18.6278 7.57024 18.64 7.59605 18.6505C7.71428 18.7014 7.84241 18.7253 7.97105 18.7203C8.17386 18.6979 8.36862 18.6283 8.53984 18.5173C8.89773 18.2233 9.3523 18.0731 9.8149 18.0961C10.6936 18.1866 10.8853 19.0612 11.5815 19.0139C12.2247 18.9687 12.5066 18.3763 13.278 18.1158C13.6876 18.0104 14.0953 18.0105 14.5735 18.3403H14.573ZM17.1408 10.3124C17.3095 10.4243 17.4473 10.5767 17.5418 10.7556C17.6362 10.9346 17.6843 11.1343 17.6815 11.3366V15.0123C17.682 15.0739 17.6704 15.135 17.6473 15.1921C17.6243 15.2492 17.5902 15.3012 17.547 15.3451C17.5039 15.3891 17.4525 15.4241 17.3958 15.4481C17.3391 15.4722 17.2782 15.4848 17.2167 15.4853C17.2009 15.4853 17.0833 15.5442 16.9543 15.8142C16.7906 16.2022 16.7107 16.6204 16.7199 17.0414C16.6841 17.5661 16.8242 18.0877 17.1181 18.5238C17.2104 18.4809 17.2923 18.4182 17.3578 18.3403H17.3556C20.5139 15.4906 20.989 10.6416 18.4457 7.21246C15.9025 3.78213 11.1983 2.92761 7.64979 5.2507C4.10124 7.57378 2.90443 12.2911 4.90307 16.0778V11.3345C4.90207 11.3031 4.90303 11.2716 4.90594 11.2402L4.53573 11.2415C4.53573 9.55278 5.64745 8.18736 9.2629 8.18736C12.1788 8.20479 15.8388 9.08548 17.1409 10.3083L17.1408 10.3124ZM12.6718 13.8298C12.6718 12.9761 13.0333 12.2934 13.4837 12.2934C13.9341 12.2934 14.2944 12.9788 14.2944 13.8298C14.2944 14.6787 13.9329 15.3645 13.4837 15.3645C13.0345 15.3645 12.6705 14.7052 12.6705 13.8258L12.6718 13.8298ZM7.13922 13.8298C7.13922 12.9761 7.50088 12.2934 7.9512 12.2934C8.40152 12.2934 8.76183 12.9788 8.76183 13.8298C8.76183 14.6787 8.39916 15.3645 7.9512 15.3645C7.50324 15.3645 7.13769 14.7052 7.13769 13.8258L7.13922 13.8298Z" fill="#7B1FA2"/>
</g>
<defs>
<clipPath id="clip0_3_4129">
<rect width="18" height="18.0006" fill="white" transform="translate(3 2.99927)"/>
</clipPath>
</defs>
</svg>
