<svg width="24" height="24" viewBox="0 0 24 24" fill="none" xmlns="http://www.w3.org/2000/svg">
<g clip-path="url(#clip0_3_4117)">
<path fill-rule="evenodd" clip-rule="evenodd" d="M13.318 15.129L13.385 15.029L14.787 12.627C14.787 12.627 14.983 12.262 15.053 12.127L15.173 11.893L15.205 11.83L15.213 11.814L15.241 11.759C15.2721 11.6892 15.2985 11.6173 15.32 11.544L15.605 12.182L15.875 12.709C15.1719 13.1294 14.6451 13.7906 14.3922 14.5698C14.1393 15.349 14.1775 16.1935 14.4997 16.9467C14.8219 17.6999 15.4063 18.3107 16.1445 18.666C16.8826 19.0213 17.7246 19.0969 18.5143 18.8788C19.3039 18.6607 19.9877 18.1637 20.439 17.48C20.8902 16.7962 21.0782 15.972 20.9682 15.1602C20.8582 14.3484 20.4575 13.604 19.8406 13.065C19.2237 12.5261 18.4322 12.229 17.613 12.229C17.4716 12.2289 17.3303 12.2376 17.19 12.255L17.042 11.944L14.724 6.45798C14.715 6.43498 14.694 6.38898 14.694 6.38898C14.6352 6.27235 14.5451 6.17434 14.4339 6.10584C14.3227 6.03734 14.1946 6.00104 14.064 6.00098H11.239C11.0518 6.00098 10.8722 6.07536 10.7398 6.20776C10.6074 6.34016 10.533 6.51973 10.533 6.70698C10.533 6.89422 10.6074 7.07379 10.7398 7.20619C10.8722 7.33859 11.0518 7.41298 11.239 7.41298H13.606L14.143 8.90598C13.65 8.97998 13.003 9.08698 12.35 9.21698C11.6199 9.3457 10.9025 9.5381 10.206 9.79198C9.91708 9.91613 9.63501 10.0557 9.361 10.21C9.17916 10.0154 8.95972 9.85983 8.71599 9.75258C8.47225 9.64532 8.20928 9.58864 7.943 9.58598H5.119C4.5166 9.63034 3.95607 9.91071 3.55926 10.3661C3.16246 10.8215 2.96147 11.4152 3 12.018C2.99315 12.2786 3.06218 12.5356 3.19871 12.7577C3.33524 12.9798 3.53337 13.1574 3.769 13.269C3.44976 13.6705 3.22182 14.1367 3.10105 14.6352C2.98029 15.1338 2.96959 15.6526 3.0697 16.1557C3.16981 16.6588 3.37834 17.134 3.68076 17.5484C3.98318 17.9627 4.37224 18.3061 4.82088 18.5548C5.26951 18.8035 5.76694 18.9515 6.27856 18.9884C6.79018 19.0253 7.3037 18.9504 7.7834 18.7687C8.2631 18.587 8.69746 18.303 9.05625 17.9364C9.41505 17.5698 9.68967 17.1295 9.861 16.646H10.768C11.2893 16.6414 11.8 16.4986 12.248 16.2321C12.696 15.9656 13.0653 15.5849 13.318 15.129ZM9.354 13.352C9.76565 13.8981 10.0089 14.5526 10.054 15.235L10.767 15.238C11.0198 15.2455 11.2693 15.1791 11.485 15.047C11.7508 14.8628 11.9744 14.6242 12.141 14.347C12.35 14.034 12.562 13.692 12.762 13.352H9.354ZM14.027 10.314C14.034 10.378 14.041 10.455 14.041 10.543C14.0615 10.7587 14.031 10.9762 13.952 11.178C13.9234 11.2348 13.8899 11.289 13.852 11.34C13.7148 11.5289 13.5341 11.6821 13.3253 11.7865C13.1164 11.891 12.8855 11.9436 12.652 11.94H10.063V11.373L10.263 11.266C10.45 11.168 10.677 11.055 10.857 10.981C11.7282 10.6026 12.6589 10.3796 13.607 10.322C13.765 10.314 13.914 10.314 14.027 10.314ZM7.947 10.983C8.246 10.983 8.54 11.402 8.627 11.783H4.439C4.526 11.404 4.819 10.983 5.119 10.983H7.947ZM7.70826 17.2319C7.35979 17.4647 6.9501 17.589 6.531 17.589C5.96901 17.589 5.43003 17.3657 5.03264 16.9683C4.63525 16.5709 4.412 16.032 4.412 15.47C4.412 15.0509 4.53628 14.6412 4.76912 14.2927C5.00196 13.9443 5.3329 13.6727 5.7201 13.5123C6.10729 13.3519 6.53335 13.3099 6.9444 13.3917C7.35544 13.4735 7.73301 13.6753 8.02936 13.9716C8.32571 14.268 8.52752 14.6455 8.60929 15.0566C8.69105 15.4676 8.64909 15.8937 8.4887 16.2809C8.32832 16.6681 8.05672 16.999 7.70826 17.2319ZM19.2217 16.6896C19.4345 16.3712 19.548 15.9969 19.548 15.614C19.5481 15.3597 19.4981 15.1079 19.4009 14.8729C19.3037 14.638 19.1611 14.4245 18.9813 14.2447C18.8015 14.0649 18.588 13.9223 18.353 13.8251C18.1181 13.7278 17.8663 13.6778 17.612 13.678C17.2291 13.678 16.8548 13.7915 16.5364 14.0043C16.218 14.217 15.9699 14.5193 15.8234 14.8731C15.6768 15.2269 15.6385 15.6161 15.7132 15.9917C15.7879 16.3672 15.9723 16.7122 16.243 16.9829C16.5138 17.2537 16.8588 17.4381 17.2343 17.5128C17.6099 17.5875 17.9991 17.5491 18.3529 17.4026C18.7066 17.2561 19.009 17.0079 19.2217 16.6896Z" fill="#027A7A"/>
<path d="M18.065 9.48097C18.065 9.46699 18.0651 9.45313 18.0652 9.43959C18.0655 9.4134 18.0657 9.38838 18.065 9.36597V9.36097C18.065 9.34856 18.065 9.33611 18.065 9.32362C18.0651 9.22338 18.0652 9.12112 18.059 9.02597C18.0542 8.9129 18.0319 8.80125 17.993 8.69497C17.948 8.57571 17.8646 8.47477 17.756 8.40797C17.6345 8.33822 17.496 8.3036 17.356 8.30797C17.0439 8.30797 16.7445 8.43198 16.5238 8.65271C16.303 8.87344 16.179 9.17281 16.179 9.48497C16.179 9.79713 16.303 10.0965 16.5238 10.3172C16.7445 10.538 17.0439 10.662 17.356 10.662C17.496 10.6664 17.6345 10.6318 17.756 10.562C17.8646 10.4952 17.948 10.3942 17.993 10.275C18.0319 10.1687 18.0542 10.057 18.059 9.94397C18.065 9.83697 18.065 9.71997 18.065 9.60897V9.48097Z" fill="#027A7A"/>
</g>
<defs>
<clipPath id="clip0_3_4117">
<rect width="24" height="24" fill="white"/>
</clipPath>
</defs>
</svg>
