<svg width="24" height="24" viewBox="0 0 24 24" fill="none" xmlns="http://www.w3.org/2000/svg">
<g clip-path="url(#clip0_3_4055)">
<path d="M10.4317 19.6133C9.94496 19.3575 9.5276 18.9875 9.2149 18.5352C6.7519 15.0292 5.50005 12.3961 5.50005 10.7051C5.49463 8.93671 6.17855 7.23559 7.4063 5.96289C7.99991 5.34189 8.71306 4.84745 9.50298 4.50977C10.2929 4.17209 11.1429 3.99805 12.002 3.99805C12.8611 3.99805 13.7111 4.17209 14.501 4.50977C15.291 4.84745 16.0041 5.34189 16.5977 5.96289C17.8217 7.23759 18.5032 8.93791 18.4981 10.7051C18.4981 12.3961 17.2461 15.0292 14.7891 18.5352C14.3207 19.2175 13.618 19.7036 12.8145 19.9023C12.011 20.101 11.1622 19.9987 10.4297 19.6133H10.4317ZM8.40142 7C7.44208 7.99594 6.90779 9.32616 6.91216 10.709C6.91216 12.047 8.13457 14.5265 10.3536 17.6875C10.5398 17.9519 10.787 18.1681 11.0733 18.3184C11.3593 18.4696 11.6775 18.5496 12.001 18.5508C12.3223 18.5495 12.6384 18.4694 12.9219 18.3184C13.2091 18.1669 13.4579 17.9511 13.6475 17.6875C15.8685 14.5275 17.0899 12.047 17.0899 10.709C17.0908 9.32472 16.5528 7.99448 15.5899 7C15.1263 6.51248 14.5685 6.12462 13.9503 5.85938C13.332 5.59413 12.666 5.45703 11.9932 5.45703C11.3205 5.45703 10.6554 5.59413 10.0372 5.85938C9.4189 6.12462 8.86112 6.51248 8.39752 7H8.40142ZM11.4151 13.4492C10.834 13.3314 10.3001 13.0453 9.87994 12.627C9.45984 12.2079 9.1732 11.6736 9.0567 11.0918C8.93881 10.5095 9.00026 9.90473 9.2315 9.35742C9.41993 8.90118 9.71736 8.49899 10.0987 8.18555C10.48 7.8721 10.933 7.6571 11.417 7.56055C11.9011 7.464 12.4017 7.48965 12.8741 7.63281C13.3465 7.77598 13.776 8.03377 14.1251 8.38281C14.4741 8.73185 14.7319 9.16041 14.8751 9.63281C15.0182 10.1052 15.0429 10.6058 14.9463 11.0898C14.8498 11.5739 14.6348 12.0269 14.3213 12.4082C14.0079 12.7895 13.6057 13.087 13.1495 13.2754C12.7821 13.4266 12.3885 13.5059 11.9913 13.5059C11.7984 13.5044 11.606 13.4837 11.417 13.4453L11.4151 13.4492ZM11.7051 9.0332C11.4151 9.09206 11.1493 9.23551 10.9405 9.44531C10.7286 9.6529 10.5848 9.9197 10.5284 10.2109C10.4847 10.4285 10.4901 10.6539 10.544 10.8691C10.5979 11.0844 10.6989 11.2838 10.8399 11.4551C10.9809 11.6264 11.1586 11.7652 11.3594 11.8594C11.5603 11.9536 11.7792 12.0011 12.001 12C12.211 12.0005 12.4183 11.956 12.6104 11.8711C12.8025 11.7862 12.9753 11.6634 13.1163 11.5078C13.2573 11.3522 13.3641 11.1682 13.4297 10.9688C13.4953 10.7693 13.5182 10.5585 13.4971 10.3496C13.476 10.1407 13.4109 9.93818 13.3067 9.75586C13.2025 9.57354 13.0609 9.41527 12.8917 9.29102C12.7224 9.16676 12.5294 9.07991 12.3243 9.03516C12.1191 8.9904 11.9069 8.98878 11.7012 9.03125L11.7051 9.0332Z" fill="white"/>
</g>
<defs>
<clipPath id="clip0_3_4055">
<rect width="24" height="24" fill="white"/>
</clipPath>
</defs>
</svg>
