<svg width="24" height="24" viewBox="0 0 24 24" fill="none" xmlns="http://www.w3.org/2000/svg">
<g clip-path="url(#clip0_3_4701)">
<path fill-rule="evenodd" clip-rule="evenodd" d="M8 9C8.87423 9 9.66112 8.62606 10.2094 8.0294L15.1319 11.1174C15.0462 11.3965 15 11.6928 15 12C15 12.3072 15.0462 12.6035 15.1319 12.8826L10.2094 15.9706C9.66112 15.3739 8.87423 15 8 15C6.34315 15 5 16.3431 5 18C5 19.6569 6.34315 21 8 21C9.65685 21 11 19.6569 11 18C11 17.758 10.9713 17.5227 10.9172 17.2973L15.9181 14.1601C16.4576 14.6801 17.1915 15 18 15C19.6569 15 21 13.6569 21 12C21 10.3431 19.6569 9 18 9C17.1915 9 16.4576 9.31986 15.9181 9.83994L10.9172 6.7027C10.9713 6.4773 11 6.24199 11 6C11 4.34315 9.65685 3 8 3C6.34315 3 5 4.34315 5 6C5 7.65685 6.34315 9 8 9ZM8 7.5C8.82843 7.5 9.5 6.82843 9.5 6C9.5 5.17157 8.82843 4.5 8 4.5C7.17157 4.5 6.5 5.17157 6.5 6C6.5 6.82843 7.17157 7.5 8 7.5ZM8 19.5C8.82843 19.5 9.5 18.8284 9.5 18C9.5 17.1716 8.82843 16.5 8 16.5C7.17157 16.5 6.5 17.1716 6.5 18C6.5 18.8284 7.17157 19.5 8 19.5ZM19.5 12C19.5 12.8284 18.8284 13.5 18 13.5C17.1716 13.5 16.5 12.8284 16.5 12C16.5 11.1716 17.1716 10.5 18 10.5C18.8284 10.5 19.5 11.1716 19.5 12Z" fill="#580F78"/>
</g>
<defs>
<clipPath id="clip0_3_4701">
<rect width="24" height="24" fill="white"/>
</clipPath>
</defs>
</svg>
